<mxfile host="65bd71144e">
    <diagram id="report-generation-flow" name="Report Generation Process">
        <mxGraphModel dx="827" dy="800" grid="1" gridSize="10" guides="1" tooltips="1" connect="1" arrows="1" fold="1" page="1" pageScale="1" pageWidth="1100" pageHeight="850" math="0" shadow="0">
            <root>
                <mxCell id="0"/>
                <mxCell id="1" parent="0"/>
                <mxCell id="2" value="&lt;h1&gt;Report Generation Process&lt;/h1&gt;" style="text;html=1;strokeColor=none;fillColor=none;align=center;verticalAlign=middle;whiteSpace=wrap;rounded=0;" parent="1" vertex="1">
                    <mxGeometry x="280" y="20" width="540" height="30" as="geometry"/>
                </mxCell>
                <mxCell id="3" value="Start" style="ellipse;whiteSpace=wrap;html=1;fillColor=#d5e8d4;strokeColor=#82b366;" parent="1" vertex="1">
                    <mxGeometry x="500" y="70" width="100" height="60" as="geometry"/>
                </mxCell>
                <mxCell id="5" value="" style="endArrow=classic;html=1;exitX=0.5;exitY=1;exitDx=0;exitDy=0;entryX=0.5;entryY=0;entryDx=0;entryDy=0;" parent="1" source="3" target="6" edge="1">
                    <mxGeometry width="50" height="50" relative="1" as="geometry">
                        <mxPoint x="550" y="140" as="sourcePoint"/>
                        <mxPoint x="550" y="160" as="targetPoint"/>
                    </mxGeometry>
                </mxCell>
                <mxCell id="6" value="User selects report type from dashboard" style="rounded=1;whiteSpace=wrap;html=1;fillColor=#dae8fc;strokeColor=#6c8ebf;" parent="1" vertex="1">
                    <mxGeometry x="480" y="160" width="140" height="60" as="geometry"/>
                </mxCell>
                <mxCell id="11" value="" style="endArrow=classic;html=1;exitX=0.5;exitY=1;exitDx=0;exitDy=0;entryX=0.5;entryY=0;entryDx=0;entryDy=0;" parent="1" source="6" edge="1">
                    <mxGeometry width="50" height="50" relative="1" as="geometry">
                        <mxPoint x="350" y="320" as="sourcePoint"/>
                        <mxPoint x="550" y="260" as="targetPoint"/>
                    </mxGeometry>
                </mxCell>
                <mxCell id="20" value="Execute report query" style="rounded=1;whiteSpace=wrap;html=1;fillColor=#dae8fc;strokeColor=#6c8ebf;" parent="1" vertex="1">
                    <mxGeometry x="480" y="260" width="140" height="60" as="geometry"/>
                </mxCell>
                <mxCell id="24" value="Process data and format results" style="rounded=1;whiteSpace=wrap;html=1;fillColor=#dae8fc;strokeColor=#6c8ebf;" parent="1" vertex="1">
                    <mxGeometry x="480" y="360" width="140" height="60" as="geometry"/>
                </mxCell>
                <mxCell id="25" value="" style="endArrow=classic;html=1;exitX=0.5;exitY=1;exitDx=0;exitDy=0;entryX=0.5;entryY=0;entryDx=0;entryDy=0;" parent="1" source="20" target="24" edge="1">
                    <mxGeometry width="50" height="50" relative="1" as="geometry">
                        <mxPoint x="550" y="700" as="sourcePoint"/>
                        <mxPoint x="550" y="730" as="targetPoint"/>
                    </mxGeometry>
                </mxCell>
                <mxCell id="27" value="" style="endArrow=classic;html=1;exitX=0.5;exitY=1;exitDx=0;exitDy=0;entryX=0.5;entryY=0;entryDx=0;entryDy=0;" parent="1" source="24" target="29" edge="1">
                    <mxGeometry width="50" height="50" relative="1" as="geometry">
                        <mxPoint x="550" y="790" as="sourcePoint"/>
                        <mxPoint x="550" y="440" as="targetPoint"/>
                    </mxGeometry>
                </mxCell>
                <mxCell id="29" value="Generate PDF document" style="rounded=1;whiteSpace=wrap;html=1;fillColor=#dae8fc;strokeColor=#6c8ebf;" parent="1" vertex="1">
                    <mxGeometry x="480" y="480" width="140" height="60" as="geometry"/>
                </mxCell>
                <mxCell id="34" value="Store generated report in database" style="rounded=1;whiteSpace=wrap;html=1;fillColor=#dae8fc;strokeColor=#6c8ebf;" parent="1" vertex="1">
                    <mxGeometry x="480" y="590" width="140" height="60" as="geometry"/>
                </mxCell>
                <mxCell id="36" value="" style="endArrow=classic;html=1;exitX=0.5;exitY=1;exitDx=0;exitDy=0;entryX=0.5;entryY=0;entryDx=0;entryDy=0;" parent="1" source="29" target="34" edge="1">
                    <mxGeometry width="50" height="50" relative="1" as="geometry">
                        <mxPoint x="550" y="970" as="sourcePoint"/>
                        <mxPoint x="550" y="1000" as="targetPoint"/>
                    </mxGeometry>
                </mxCell>
                <mxCell id="38" value="End:&lt;br&gt;Report Generated" style="ellipse;whiteSpace=wrap;html=1;fillColor=#d5e8d4;strokeColor=#82b366;" parent="1" vertex="1">
                    <mxGeometry x="500" y="700" width="100" height="60" as="geometry"/>
                </mxCell>
                <mxCell id="39" value="" style="endArrow=classic;html=1;exitX=0.5;exitY=1;exitDx=0;exitDy=0;entryX=0.5;entryY=0;entryDx=0;entryDy=0;" parent="1" source="34" target="38" edge="1">
                    <mxGeometry width="50" height="50" relative="1" as="geometry">
                        <mxPoint x="550" y="1060" as="sourcePoint"/>
                        <mxPoint x="550" y="1090" as="targetPoint"/>
                    </mxGeometry>
                </mxCell>
                <mxCell id="40" value="" style="rounded=1;whiteSpace=wrap;html=1;fillColor=#dae8fc;strokeColor=#6c8ebf;" parent="1" vertex="1">
                    <mxGeometry x="900" y="70" width="30" height="20" as="geometry"/>
                </mxCell>
                <mxCell id="41" value="Process" style="text;html=1;strokeColor=none;fillColor=none;align=left;verticalAlign=middle;whiteSpace=wrap;rounded=0;" parent="1" vertex="1">
                    <mxGeometry x="940" y="70" width="100" height="20" as="geometry"/>
                </mxCell>
                <mxCell id="42" value="" style="rhombus;whiteSpace=wrap;html=1;fillColor=#fff2cc;strokeColor=#d6b656;" parent="1" vertex="1">
                    <mxGeometry x="905" y="100" width="20" height="20" as="geometry"/>
                </mxCell>
                <mxCell id="43" value="Decision" style="text;html=1;strokeColor=none;fillColor=none;align=left;verticalAlign=middle;whiteSpace=wrap;rounded=0;" parent="1" vertex="1">
                    <mxGeometry x="940" y="100" width="100" height="20" as="geometry"/>
                </mxCell>
                <mxCell id="44" value="" style="ellipse;whiteSpace=wrap;html=1;fillColor=#d5e8d4;strokeColor=#82b366;" parent="1" vertex="1">
                    <mxGeometry x="905" y="130" width="20" height="20" as="geometry"/>
                </mxCell>
                <mxCell id="45" value="Start/End" style="text;html=1;strokeColor=none;fillColor=none;align=left;verticalAlign=middle;whiteSpace=wrap;rounded=0;" parent="1" vertex="1">
                    <mxGeometry x="940" y="130" width="100" height="20" as="geometry"/>
                </mxCell>
                <mxCell id="46" value="" style="rounded=1;whiteSpace=wrap;html=1;fillColor=#f8cecc;strokeColor=#b85450;" parent="1" vertex="1">
                    <mxGeometry x="900" y="160" width="30" height="20" as="geometry"/>
                </mxCell>
                <mxCell id="47" value="Error/Validation Failure" style="text;html=1;strokeColor=none;fillColor=none;align=left;verticalAlign=middle;whiteSpace=wrap;rounded=0;" parent="1" vertex="1">
                    <mxGeometry x="940" y="160" width="100" height="20" as="geometry"/>
                </mxCell>
            </root>
        </mxGraphModel>
    </diagram>
</mxfile>